<svg xmlns="http://www.w3.org/2000/svg" fill="none" viewBox="0 0 250 250" height="250" width="250">
<path fill="url(#paint0_linear_633_9295)" d="M48.9999 207C38.0808 207 29.1059 203.654 21.9999 196C14.8938 188.346 11.3465 179.264 10.9999 169C10.9999 167.608 10.8266 165.74 10.9999 164C11.1732 162.26 11.6532 160.392 11.9999 159L33.9999 72C36.4263 62.7802 41.4571 54.9146 48.9999 49C56.5358 43.0854 64.6407 40 73.9999 40H176C185.359 40 193.464 43.0854 201 49C208.543 54.9146 213.573 62.7802 216 72L238 159C238.347 160.566 238.736 162.351 239 164C239.256 165.656 239 167.434 239 169C239 179.438 235.362 188.52 228 196C220.63 203.48 211.919 207 201 207C193.721 207 186.239 204.827 180 201C173.76 197.173 169.12 192.61 166 186L159 170C158.133 168.086 156.643 166.779 155 166C153.35 165.214 152.08 165 150 165H99.9999C97.9201 165 96.6429 165.214 94.9999 166C93.3499 166.779 91.8665 168.086 90.9999 170L83.9999 186C80.8802 192.61 75.2393 197.173 68.9999 201C62.7604 204.827 56.2792 207 48.9999 207ZM49.9999 186C52.9463 186 55.31 185.566 57.9999 184C60.6828 182.434 63.2667 179.305 64.9999 176L71.9999 162C74.5997 156.607 79.0638 152.041 83.9999 149C88.9429 145.952 93.9338 144 99.9999 144H150C155.893 144 160.974 145.869 166 149C171.026 152.131 175.227 156.781 178 162L185 176C186.733 179.305 189.31 182.434 192 184C194.683 185.566 197.053 186 200 186C204.506 186 208.36 184.131 212 181C215.64 177.869 217.827 174.045 218 169V167C218 166.221 217.347 164.87 217 164L196 77C194.787 72.3031 191.64 67.9573 188 65C184.36 62.0427 180.853 61 176 61H73.9999C69.147 61 64.7228 62.0427 60.9999 65C57.2701 67.9573 55.0398 72.3031 53.9999 77L31.9999 164C31.6532 165.044 31.9999 166.912 31.9999 169C31.9999 174.045 34.1869 177.778 37.9999 181C41.8129 184.215 45.4936 186 49.9999 186ZM140 113C137.053 113 134.99 112.004 133 110C131.003 108.003 130 105.957 130 103C130 100.043 131.003 97.004 133 95C134.99 93.003 137.053 92 140 92C142.946 92 146.003 93.003 148 95C149.99 97.004 151 100.043 151 103C151 105.957 149.99 108.003 148 110C146.003 112.004 142.946 113 140 113ZM161 92C158.053 92 155.99 91.004 154 89C152.003 87.003 151 84.9573 151 82C151 79.0427 152.003 76.004 154 74C155.99 72.003 158.053 71 161 71C163.946 71 167.01 72.003 169 74C170.997 76.004 172 79.0427 172 82C172 84.9573 170.997 87.003 169 89C167.01 91.004 163.946 92 161 92ZM161 134C158.053 134 155.99 133.004 154 131C152.003 129.003 151 126.957 151 124C151 121.043 152.003 118.004 154 116C155.99 114.003 158.053 113 161 113C163.946 113 167.01 114.003 169 116C170.997 118.004 172 121.043 172 124C172 126.957 170.997 129.003 169 131C167.01 133.004 163.946 134 161 134ZM182 113C179.053 113 176.99 112.004 175 110C173.003 108.003 172 105.957 172 103C172 100.043 173.003 97.004 175 95C176.99 93.003 179.053 92 182 92C184.946 92 187.01 93.003 189 95C190.997 97.004 192 100.043 192 103C192 105.957 190.997 108.003 189 110C187.01 112.004 184.946 113 182 113ZM87.9999 129C85.9201 129 84.5597 127.566 82.9999 126C81.44 124.434 80.9999 123.088 80.9999 121V110H69.9999C67.9201 110 66.5597 109.566 64.9999 108C63.44 106.434 61.9999 105.088 61.9999 103C61.9999 100.912 63.44 98.5656 64.9999 97C66.5597 95.4344 67.9201 95 69.9999 95H80.9999V84C80.9999 81.9125 81.44 80.5656 82.9999 79C84.5597 77.4344 85.9201 77 87.9999 77C90.0797 77 92.44 77.4344 93.9999 79C95.5597 80.5656 95.9999 81.9125 95.9999 84V95H107C109.08 95 110.44 95.4344 112 97C113.56 98.5656 114 100.912 114 103C114 105.088 113.56 106.434 112 108C110.44 109.566 109.08 110 107 110H95.9999V121C95.9999 123.088 95.5597 124.434 93.9999 126C92.44 127.566 90.0797 129 87.9999 129Z"></path>
<defs>
<linearGradient gradientUnits="userSpaceOnUse" y2="177.181" x2="33.7537" y1="66.5682" x1="181.658" id="paint0_linear_633_9295">
<stop stop-color="#C40D42"></stop>
<stop stop-color="#FE8B03" offset="1"></stop>
</linearGradient>
</defs>
</svg>
